<svg id="Calque_1" data-name="Calque 1" xmlns="http://www.w3.org/2000/svg" viewBox="0 0 146.2 66"><defs><style>.cls-1{fill:#d3a925;}</style></defs><title>bone_gold</title><path class="cls-1" d="M588,389h-2c-7.6-1.71-14-5-17.4-12.59-.41-.9-2.44-1.5-3.73-1.51q-30.87-.14-61.73,0c-1.29,0-3.32.6-3.73,1.5-3.46,7.55-9.79,10.91-17.4,12.6h-2a21.65,21.65,0,0,0-2.33-.78c-14.47-3.15-20.68-16.45-14.15-29.84.72-1.48.32-4-.46-5.63-4.58-9.56-1.73-20.83,7.25-26.14,2.92-1.73,6.44-2.43,9.69-3.6h2c7.62,1.68,13.94,5.05,17.4,12.6.41.9,2.45,1.5,3.73,1.5q30.87.14,61.73,0c1.29,0,3.32-.6,3.73-1.51C572.05,328,578.4,324.7,586,323h2a21.78,21.78,0,0,0,2.33.78c14.47,3.16,20.67,16.45,14.15,29.84-.72,1.48-.32,4,.46,5.63,4.58,9.54,1.73,20.81-7.25,26.14C594.77,387.12,591.25,387.83,588,389Zm13.67-45c-.68-6.86-5.51-12.83-11.78-14-6.82-1.27-13.3,2.09-15.55,8.72-1.15,3.41-2.72,4.78-6.35,4.76q-34-.19-68,0c-3.23,0-5.14-.81-6.19-4.27-1.69-5.58-5.81-8.84-11.73-9.34A12.92,12.92,0,0,0,468.83,337c-3,5.4-2.36,10.71,1.61,15.32,2.25,2.62,2.64,4.5.17,7.25-4.06,4.52-4.77,9.83-1.9,15.29a12.89,12.89,0,0,0,13.12,7.33c6.14-.43,10.27-3.79,12.08-9.58.9-2.89,2.37-4,5.33-4,23.16.06,46.31,0,69.47.18a6.7,6.7,0,0,1,5,3.44c2.32,5.85,6.09,9.51,12.44,10a12.83,12.83,0,0,0,13.13-7.31c3-5.66,2-11-2.18-15.69-2.14-2.37-1.69-4.08.1-6.5C599.09,350.07,600.21,346.92,601.67,344Z" transform="translate(-460.9 -323)"/></svg>