<?xml version="1.0" encoding="utf-8"?>
<!-- Generator: Adobe Illustrator 21.0.0, SVG Export Plug-In . SVG Version: 6.00 Build 0)  -->
<svg version="1.1" id="Calque_1" xmlns:sketch="http://www.bohemiancoding.com/sketch/ns"
	 xmlns="http://www.w3.org/2000/svg" xmlns:xlink="http://www.w3.org/1999/xlink" x="0px" y="0px" viewBox="0 0 32 32"
	 style="enable-background:new 0 0 32 32;" xml:space="preserve">
<style type="text/css">
	.st0{fill:#FFFFFF;}
</style>
<title>checkmark-square</title>
<desc>Created with Sketch Beta.</desc>
<g id="Page-1" sketch:type="MSPage">
	<g id="Icon-Set" transform="translate(-256.000000, -1035.000000)" sketch:type="MSLayerGroup">
		<path id="checkmark-square" sketch:type="MSShapeGroup" class="st0" d="M286,1063c0,1.1-0.9,2-2,2h-24c-1.1,0-2-0.9-2-2v-24
			c0-1.1,0.9-2,2-2h24c1.1,0,2,0.9,2,2V1063L286,1063z M284,1035h-24c-2.2,0-4,1.8-4,4v24c0,2.2,1.8,4,4,4h24c2.2,0,4-1.8,4-4v-24
			C288,1036.8,286.2,1035,284,1035L284,1035z M278,1044.1c-0.5-0.3-1.1-0.1-1.4,0.4l-6.4,11.1l-3.6-3.3c-0.4-0.4-1-0.4-1.4,0
			c-0.4,0.4-0.4,1,0,1.4l4.6,4.2c0.4,0.4,1,0.4,1.4,0c0.1-0.1,7.2-12.4,7.2-12.4C278.7,1045,278.5,1044.3,278,1044.1L278,1044.1z"/>
	</g>
</g>
</svg>
