<svg id="Layer_1" data-name="Layer 1" xmlns="http://www.w3.org/2000/svg" viewBox="0 0 22.68 17.03"><defs><style>.cls-1{fill:#b5b4b4;}.cls-2{fill:#fefefe;}</style></defs><title>dragndrop</title><path class="cls-1" d="M14,4.6h1.76a4.69,4.69,0,0,1,2.67,1,5.68,5.68,0,0,1,2.28,4.56,1.28,1.28,0,0,0,.56,1.14,4.91,4.91,0,0,1,2.12,4.14,14.53,14.53,0,0,1-.1,2,4.57,4.57,0,0,1-1.16,2.29A5.73,5.73,0,0,1,20,21.29a4.66,4.66,0,0,1-1.82.27H5.41a4.57,4.57,0,0,1-4.36-2.86,9.75,9.75,0,0,1-.26-1.24V15.71a4.46,4.46,0,0,1,.8-2.19,5,5,0,0,1,2-1.6.82.82,0,0,0,.54-.79,5.05,5.05,0,0,1,5-4.58,2.44,2.44,0,0,0,2-.78A4.13,4.13,0,0,1,14,4.6Z" transform="translate(-0.79 -4.59)"/><path class="cls-2" d="M14,4.6c-.17.14-.38.13-.58.18a5.6,5.6,0,0,0-2.83,1.78.58.58,0,0,1-.61.21,4.93,4.93,0,0,0-5.68,4.69c0,.21,0,.38-.27.48A4.91,4.91,0,0,0,.91,15.48c0,.08,0,.18-.12.23,0-3.59,0-7.19,0-10.78,0-.28.07-.34.34-.33Z" transform="translate(-0.79 -4.59)"/><path class="cls-2" d="M.79,17.47c.13.1.13.26.16.4a4.92,4.92,0,0,0,4.78,3.66h12a5.63,5.63,0,0,0,3.19-10.27.67.67,0,0,1-.39-.66A5.65,5.65,0,0,0,16,4.7c-.08,0-.18,0-.23-.1,2.45,0,4.91,0,7.36,0,.26,0,.32.05.32.32q0,8.2,0,16.4c0,.26-.05.32-.32.32H1.1c-.26,0-.32-.05-.32-.32C.8,20,.79,18.75.79,17.47Z" transform="translate(-0.79 -4.59)"/><path class="cls-2" d="M11.73,20.12c-2,0-4,0-6,0a3.52,3.52,0,0,1-.15-7c.4,0,.45-.11.35-.47A3.31,3.31,0,0,1,6.94,9a3.29,3.29,0,0,1,3.66-.6c.3.13.44.11.61-.2a4.22,4.22,0,0,1,7.92,2.22,3.33,3.33,0,0,1-.16.91c-.12.35-.06.5.31.64a4.17,4.17,0,0,1,2,6.22,4,4,0,0,1-3.44,1.9C15.79,20.14,13.76,20.12,11.73,20.12Z" transform="translate(-0.79 -4.59)"/><path class="cls-1" d="M8,14.48c0-.19.13-.25.21-.33L11.8,10.5c.15-.15.27-.3.49-.07,1.28,1.3,2.57,2.58,3.86,3.87a.87.87,0,0,1,.09.17c-.77,0-1.49,0-2.22,0-.43,0-.55.11-.54.54,0,1.1,0,2.2,0,3.31,0,.31-.09.41-.4.4q-1,0-2,0c-.31,0-.41-.1-.4-.4,0-1.13,0-2.26,0-3.39,0-.35-.1-.46-.45-.45C9.47,14.49,8.72,14.48,8,14.48Z" transform="translate(-0.79 -4.59)"/></svg>