<?xml version="1.0" encoding="utf-8"?>
<!-- Generator: Adobe Illustrator 21.0.0, SVG Export Plug-In . SVG Version: 6.00 Build 0)  -->
<svg version="1.1" id="Layer_1" xmlns="http://www.w3.org/2000/svg" xmlns:xlink="http://www.w3.org/1999/xlink" x="0px" y="0px"
	 viewBox="0 0 22.7 17" style="enable-background:new 0 0 22.7 17;" xml:space="preserve">
<style type="text/css">
	.st0{fill:#B5B4B4;}
</style>
<title>dragndrop</title>
<path class="st0" d="M19.9,6.8c-0.4-0.2-0.5-0.6-0.5-1.1c0-1.7-0.8-3.3-2.1-4.3c-0.7-0.6-1.6-0.9-2.5-0.9h-1.6c-1,0-2,0.4-2.7,1.1
	C9.9,2.2,9.2,2.5,8.5,2.4c-2.4,0-4.4,1.9-4.7,4.3c0,0.3-0.2,0.6-0.5,0.7C2.6,7.7,2,8.2,1.5,8.9c-0.4,0.6-0.7,1.3-0.7,2v1.6
	C0.8,13,0.9,13.4,1,13.7c0.7,1.7,2.3,2.7,4.1,2.7H17c0.6,0,1.2-0.1,1.7-0.3c0.8-0.3,1.4-0.8,2-1.5c0.6-0.6,0.9-1.3,1.1-2.1
	c0.1-0.6,0.1-1.2,0.1-1.9C21.9,9.2,21.1,7.7,19.9,6.8z M20.3,12.5c-0.1,0.3-0.2,0.5-0.4,0.8C19.2,14.4,18,15,16.7,15
	c-1.9,0-3.8,0-5.7,0c-1.9,0-3.7,0-5.6,0c-1.8-0.2-3.2-1.7-3-3.5c0.1-1.5,1.3-2.8,2.9-3c0.4,0,0.4-0.1,0.3-0.4
	C5.1,6.9,5.5,5.5,6.5,4.7c0.9-0.9,2.3-1.1,3.4-0.6c0.3,0.1,0.4,0.1,0.6-0.2c1-1.9,3.4-2.6,5.3-1.6c1.3,0.7,2.1,2.1,2,3.6
	c0,0.3-0.1,0.6-0.1,0.8c-0.1,0.3-0.1,0.5,0.3,0.6C20,8.2,21,10.5,20.3,12.5z"/>
<path class="st0" d="M7.5,9.8c0-0.2,0.1-0.2,0.2-0.3L11,6.1c0.1-0.1,0.3-0.3,0.5-0.1c1.2,1.2,2.4,2.4,3.6,3.6c0,0,0.1,0.1,0.1,0.2
	c-0.7,0-1.4,0-2.1,0c-0.4,0-0.5,0.1-0.5,0.5c0,1,0,2.1,0,3.1c0,0.3-0.1,0.4-0.4,0.4c-0.6,0-1.2,0-1.9,0c-0.3,0-0.4-0.1-0.4-0.4
	c0-1.1,0-2.1,0-3.2c0-0.3-0.1-0.4-0.4-0.4C8.9,9.8,8.2,9.8,7.5,9.8z"/>
</svg>
