<svg id="Calque_1" data-name="Calque 1" xmlns="http://www.w3.org/2000/svg" viewBox="0 0 23.64 25.71"><defs><style>.cls-1{fill:#8362c6;}</style></defs><title>thumbs up</title><path class="cls-1" d="M4.29,20.36a1.07,1.07,0,1,1-1.07-1.07A1.08,1.08,0,0,1,4.29,20.36ZM7,11.79A1.08,1.08,0,0,0,6,10.71H1.14A1.08,1.08,0,0,0,.07,11.79V22.5a1.08,1.08,0,0,0,1.07,1.07H6A1.08,1.08,0,0,0,7,22.5Zm16.67,0A3.26,3.26,0,0,0,20.5,8.57H15.86a4,4,0,0,1,.49-1.07,6.57,6.57,0,0,0,.94-3.21C17.28,3,17.28,0,13.53,0a1.07,1.07,0,0,0-.75.32A4.9,4.9,0,0,0,11.67,3a5,5,0,0,1-1,2.63,23.44,23.44,0,0,0-1.69,2c-.74,1-2.34,3-3,3a1.12,1.12,0,0,0-1,1.07V22.5A1.1,1.1,0,0,0,6,23.57a11.58,11.58,0,0,1,2.65.74,20.06,20.06,0,0,0,6.46,1.41H17.3a4.15,4.15,0,0,0,3.3-1.31,4,4,0,0,0,.82-3,3.43,3.43,0,0,0,.9-1.57,3.54,3.54,0,0,0,0-2A3.54,3.54,0,0,0,23,15.55a4.44,4.44,0,0,0-.25-1.27A4,4,0,0,0,23.71,11.79Z" transform="translate(-0.07 0)"/></svg>