<svg id="Calque_1" data-name="Calque 1" xmlns="http://www.w3.org/2000/svg" viewBox="0 0 23.79 25.71"><defs><style>.cls-1{fill:#8362c6;}</style></defs><title>thumbs2</title><path class="cls-1" d="M4.29,20.36a1.07,1.07,0,1,1-1.07-1.07A1.08,1.08,0,0,1,4.29,20.36ZM7,11.79a1.08,1.08,0,0,0-1.07-1.07H1.07A1.08,1.08,0,0,0,0,11.79V22.5a1.08,1.08,0,0,0,1.07,1.07H5.89A1.08,1.08,0,0,0,7,22.5Zm16.82,0a3.26,3.26,0,0,0-3.21-3.21H15.93a4,4,0,0,1,.49-1.07,6.57,6.57,0,0,0,.94-3.21C17.36,3,17.36,0,13.61,0a1.07,1.07,0,0,0-.75.32A4.9,4.9,0,0,0,11.75,3a5,5,0,0,1-1,2.63A23.44,23.44,0,0,0,9,7.68c-.74,1-2.34,3-3,3a1.12,1.12,0,0,0-1,1.07V22.5a1.1,1.1,0,0,0,1.07,1.07,11.58,11.58,0,0,1,2.65.74,20.06,20.06,0,0,0,6.46,1.41h2.16a4.15,4.15,0,0,0,3.3-1.31,4,4,0,0,0,.82-3,3.43,3.43,0,0,0,.9-1.57,3.54,3.54,0,0,0,0-2,3.54,3.54,0,0,0,.72-2.29,4.44,4.44,0,0,0-.25-1.27A4,4,0,0,0,23.79,11.79Z" transform="translate(0 0)"/></svg>