<svg id="Calque_1" data-name="Calque 1" xmlns="http://www.w3.org/2000/svg" viewBox="0 0 25.71 27.86"><defs><style>.cls-1{fill:#ababab;}</style></defs><title>thumbs</title><path class="cls-1" d="M4.29,22.5a1.07,1.07,0,1,1-1.07-1.07A1.08,1.08,0,0,1,4.29,22.5Zm19.29-9.64c0,.62-.47,2.13-1.26,2.14a3,3,0,0,1,.59,1.72,2.66,2.66,0,0,1-.89,2,2.33,2.33,0,0,1,.3,1.16A2.49,2.49,0,0,1,21.23,22a5.74,5.74,0,0,1,.08.94c0,2-1.32,2.8-3.21,2.8h-2a17.7,17.7,0,0,1-5.73-1.22A13,13,0,0,0,7,23.57H6.43V12.86H7C8.29,12.86,10.28,10,11,9c.42-.52.82-1,1.29-1.52,1.62-1.71,1.07-4.27,2.14-5.36,2.29,0,2.68,1.26,2.68,3.21s-1.61,3.4-1.61,5.36h5.89A2.22,2.22,0,0,1,23.57,12.86Zm2.14,0a4.35,4.35,0,0,0-4.29-4.27H18.48a7.14,7.14,0,0,0,.8-3.21,6.43,6.43,0,0,0-.59-3.11A4.45,4.45,0,0,0,14.46,0,2.19,2.19,0,0,0,13,.62C11.28,2.26,11.82,4.91,10.81,6,10.18,6.66,9.59,7.38,9,8.12a15.6,15.6,0,0,1-2.29,2.59H2.14A2.14,2.14,0,0,0,0,12.86V23.57a2.14,2.14,0,0,0,2.14,2.14H7a12.38,12.38,0,0,1,2.31.67,20.61,20.61,0,0,0,6.8,1.47h2.16c3.1,0,5.26-1.86,5.22-5a4.88,4.88,0,0,0,1-3,5.2,5.2,0,0,0-.05-.72A4.9,4.9,0,0,0,25,16.72a4.46,4.46,0,0,0-.15-1.16A4.93,4.93,0,0,0,25.71,12.84Z" transform="translate(0 0)"/></svg>