<svg width="25.714316" height="27.857176" viewBox="0.000000 -53.571492 25.714316 27.857176" xmlns="http://www.w3.org/2000/svg"><path d="M4.285719 -31.071466C4.285719 -30.485527 3.800228 -30.000036 3.214290 -30.000036C2.628351 -30.000036 2.142860 -30.485527 2.142860 -31.071466C2.142860 -31.657404 2.628351 -32.142895 3.214290 -32.142895C3.800228 -32.142895 4.285719 -31.657404 4.285719 -31.071466ZM23.571457 -40.714334C23.571457 -40.094914 23.102706 -38.588216 22.315875 -38.571475C22.667438 -38.169688 22.901813 -37.382857 22.901813 -36.847142C22.901813 -36.060311 22.583732 -35.390667 22.014535 -34.854952C22.215428 -34.503389 22.315875 -34.101603 22.315875 -33.699817C22.315875 -32.929727 21.930830 -31.975485 21.227704 -31.590439C21.277927 -31.289100 21.311409 -30.971019 21.311409 -30.652938C21.311409 -28.610525 19.988863 -27.857176 18.097120 -27.857176L16.071448 -27.857176C14.095999 -27.857176 12.187515 -28.443114 10.345994 -29.079276C9.441976 -29.397356 7.901795 -30.000036 6.964294 -30.000036L6.428579 -30.000036L6.428579 -40.714334L6.964294 -40.714334C8.286840 -40.714334 10.279030 -43.577061 11.032379 -44.548044C11.450907 -45.067018 11.852693 -45.585992 12.321443 -46.071483C13.945329 -47.779075 13.392873 -50.340462 14.464303 -51.428633C16.757832 -51.428633 17.142878 -50.173051 17.142878 -48.214343C17.142878 -46.238894 15.535733 -44.815902 15.535733 -42.857194L21.428597 -42.857194C22.550250 -42.857194 23.571457 -41.852728 23.571457 -40.714334ZM25.714316 -40.731075C25.714316 -43.041346 23.738868 -45.000054 21.428597 -45.000054L18.482165 -45.000054C18.984398 -46.038001 19.285737 -47.042467 19.285737 -48.214343C19.285737 -49.335996 19.218773 -50.306980 18.699799 -51.328186C17.879486 -52.952072 16.205376 -53.571492 14.464303 -53.571492C13.895106 -53.571492 13.359391 -53.337117 12.957605 -52.952072C11.283496 -51.311445 11.819211 -48.666353 10.814745 -47.594923C10.178584 -46.908538 9.592645 -46.188671 9.023448 -45.452063C8.521216 -44.799161 7.382821 -43.292462 6.729919 -42.857194L2.142860 -42.857194C0.954242 -42.857194 0.000000 -41.902952 0.000000 -40.714334L0.000000 -30.000036C0.000000 -28.811418 0.954242 -27.857176 2.142860 -27.857176L6.964294 -27.857176C7.433045 -27.857176 8.789073 -27.354943 9.274565 -27.187532C11.484389 -26.417442 13.694213 -25.714316 16.071448 -25.714316L17.628369 -25.714316L18.231049 -25.714316C21.328150 -25.714316 23.487751 -27.572578 23.454269 -30.736644C24.107172 -31.573698 24.458735 -32.645128 24.458735 -33.716558C24.458735 -33.950933 24.441993 -34.202050 24.408511 -34.436425C24.827039 -35.173033 25.044673 -36.010088 25.044673 -36.847142C25.044673 -37.232187 24.994449 -37.633973 24.894003 -38.002277C25.429718 -38.805850 25.714316 -39.760092 25.714316 -40.731075ZM25.714316 -40.731075"></path></svg>