<svg id="Layer_1" data-name="Layer 1" xmlns="http://www.w3.org/2000/svg" viewBox="0 0 20.33 20.18"><defs><style>.cls-1{fill:#b0b0b0;}</style></defs><title>link</title><path class="cls-1" d="M14.3,15.8a5.46,5.46,0,0,1-3.8-1.6A5.28,5.28,0,0,1,9,9.2a.76.76,0,0,1,1-.8,1,1,0,0,1,.8,1.2,3.52,3.52,0,0,0,.9,3.1,3.58,3.58,0,0,0,3.2,1,3,3,0,0,0,1.6-.8c.1-.1.1-.1.2-.1l2.9-2.9a3.57,3.57,0,0,0,0-4.9,3.59,3.59,0,0,0-5-.1L13.1,6.4l-.1.1a1.08,1.08,0,0,1-1.4.2,1.08,1.08,0,0,1-.2-1.4c.2-.2.3-.3.4-.3l1.5-1.5a5.52,5.52,0,0,1,7.8,7.8l-2.9,2.9-.3.3a5.32,5.32,0,0,1-2.5,1.2C15,15.7,14.6,15.8,14.3,15.8Z" transform="translate(-2.34 -1.93)"/><path class="cls-1" d="M7.9,22.1A5.44,5.44,0,0,1,4,20.5a5.52,5.52,0,0,1-.1-7.8L6.8,9.8c.2,0,.2-.1.3-.2A5.32,5.32,0,0,1,9.6,8.4a5.54,5.54,0,0,1,5,1.5,5.28,5.28,0,0,1,1.5,5,1,1,0,1,1-2-.4,3.52,3.52,0,0,0-.9-3.1,3.58,3.58,0,0,0-3.2-1,3,3,0,0,0-1.6.8c-.1.1-.1.1-.2.1L5.3,14.2a3.54,3.54,0,0,0,5,5l1.5-1.5.1-.1a1,1,0,1,1,1.6,1.2l-.3.3-1.5,1.5A5.37,5.37,0,0,1,7.9,22.1Z" transform="translate(-2.34 -1.93)"/></svg>