<svg id="Layer_1" data-name="Layer 1" xmlns="http://www.w3.org/2000/svg" viewBox="0 0 24 23.95"><defs><style>.cls-1{fill:#ababab;}</style></defs><title>pencil</title><path class="cls-1" d="M1,24a.91.91,0,0,1-.7-.3.91.91,0,0,1-.2-1.1l3-7c0-.1.1-.2.2-.3L17.5,1.1a4,4,0,0,1,5.4,0A4,4,0,0,1,24,3.8a3.86,3.86,0,0,1-1.1,2.7L8.7,20.7c-.1.1-.2.2-.3.2l-7,3A.6.6,0,0,1,1,24Zm3.8-7.4L2.9,21.1l4.5-1.9,14-14A2,2,0,0,0,22,3.8a2.11,2.11,0,0,0-.5-1.3,1.78,1.78,0,0,0-2.6,0Z" transform="translate(0 -0.05)"/><path class="cls-1" d="M8,21a.91.91,0,0,1-.7-.3l-4-4a1,1,0,1,1,1.4-1.4l4,4a1,1,0,0,1,0,1.4A.91.91,0,0,1,8,21Z" transform="translate(0 -0.05)"/><path class="cls-1" d="M20.5,7.5a.91.91,0,0,1-.7-.3L16.3,3.7a1,1,0,0,1,0-1.4,1,1,0,0,1,1.4,0l3.5,3.5a1,1,0,0,1,0,1.4A.91.91,0,0,1,20.5,7.5Z" transform="translate(0 -0.05)"/></svg>