<svg id="Calque_1" data-name="Calque 1" xmlns="http://www.w3.org/2000/svg" viewBox="0 0 31.03 31.03"><defs><style>.cls-1{fill:#ababab;}</style></defs><title>search</title><g id="Page-1"><g id="Icon-Set"><path id="search" class="cls-1" d="M13.54,24.2a11,11,0,0,1-11-10.86,11,11,0,0,1,11-10.87,11,11,0,0,1,11,10.87,11,11,0,0,1-11,10.86Zm17.68,5.63-8-7.89a12.66,12.66,0,0,0,3.39-8.6A13,13,0,0,0,13.54.48,13,13,0,0,0,.48,13.33,13,13,0,0,0,13.54,26.18a13.12,13.12,0,0,0,8.22-2.87l8,7.92a1,1,0,0,0,1.42,0,1,1,0,0,0,0-1.4Z" transform="translate(-0.48 -0.48)"/></g></g></svg>