<svg id="Calque_1" data-name="Calque 1" xmlns="http://www.w3.org/2000/svg" viewBox="0 0 26 32"><defs><style>.cls-1{fill:#b0b0b0;}</style></defs><title>trash</title><g id="Page-1"><g id="Icon-Set"><path id="trash" class="cls-1" d="M23,8H3A1,1,0,0,1,3,6H23a1,1,0,0,1,0,2ZM22,28a2,2,0,0,1-2,2H6a2,2,0,0,1-2-2V10H22V28ZM10,3a1,1,0,0,1,1-1h4a1,1,0,0,1,1,1V4H10V3ZM24,4H18V2a2,2,0,0,0-2-2H10A2,2,0,0,0,8,2V4H2A2,2,0,0,0,0,6V8a2,2,0,0,0,2,2V28a4,4,0,0,0,4,4H20a4,4,0,0,0,4-4V10a2,2,0,0,0,2-2V6a2,2,0,0,0-2-2ZM13,28a1,1,0,0,0,1-1V15a1,1,0,0,0-2,0V27a1,1,0,0,0,1,1ZM8,28a1,1,0,0,0,1-1V15a1,1,0,0,0-2,0V27a1,1,0,0,0,1,1Zm10,0a1,1,0,0,0,1-1V15a1,1,0,0,0-2,0V27a1,1,0,0,0,1,1Z"/></g></g></svg>