<?xml version="1.0" encoding="utf-8"?>
<!-- Generator: Adobe Illustrator 21.0.0, SVG Export Plug-In . SVG Version: 6.00 Build 0)  -->
<svg version="1.1" id="Layer_1" xmlns="http://www.w3.org/2000/svg" xmlns:xlink="http://www.w3.org/1999/xlink" x="0px" y="0px"
	 viewBox="0 0 24 24" style="enable-background:new 0 0 24 24;" xml:space="preserve">
<style type="text/css">
	.st0{fill:#FFFFFF;}
</style>
<g>
	<g>
		<g>
			<path class="st0" d="M23,23H1c-0.4,0-0.7-0.2-0.9-0.5s-0.2-0.7,0-1l11-20c0.4-0.6,1.4-0.6,1.8,0l11,20c0.2,0.3,0.2,0.7,0,1
				S23.4,23,23,23z M2.7,21h18.6L12,4.1L2.7,21z"/>
		</g>
	</g>
	<g>
		<g>
			<path class="st0" d="M12,16c-0.6,0-1-0.4-1-1v-5c0-0.6,0.4-1,1-1s1,0.4,1,1v5C13,15.6,12.6,16,12,16z"/>
		</g>
	</g>
	<g>
		<g>
			<circle class="st0" cx="12" cy="18" r="1"/>
		</g>
		<g>
			<path class="st0" d="M12,19.5c-0.8,0-1.5-0.7-1.5-1.5s0.7-1.5,1.5-1.5s1.5,0.7,1.5,1.5S12.8,19.5,12,19.5z M12,17.5
				c-0.3,0-0.5,0.2-0.5,0.5s0.2,0.5,0.5,0.5s0.5-0.2,0.5-0.5S12.3,17.5,12,17.5z"/>
		</g>
	</g>
</g>
</svg>
